<svg width="1226" height="316" viewBox="0 0 1226 316" fill="none" xmlns="http://www.w3.org/2000/svg">
<path fill-rule="evenodd" clip-rule="evenodd" d="M592.38 249.668C534.269 292.501 450.04 315.354 377.52 315.354C275.835 315.354 184.293 277.744 115.037 215.193C109.597 210.273 114.472 203.57 121.001 207.401C195.741 250.887 288.154 277.048 383.614 277.048C447.994 277.048 518.816 263.728 583.936 236.087C593.773 231.908 602 242.529 592.38 249.668" fill="#FF9900"/>
<path fill-rule="evenodd" clip-rule="evenodd" d="M616.54 222.027C609.14 212.537 567.438 217.543 548.72 219.763C543.018 220.46 542.148 215.497 547.284 211.928C580.497 188.553 634.996 195.3 641.351 203.135C647.706 211.014 639.697 265.643 608.486 291.717C603.698 295.722 599.127 293.589 601.26 288.278C608.269 270.78 623.983 231.56 616.54 222.027" fill="#FF9900"/>
<path fill-rule="evenodd" clip-rule="evenodd" d="M386.194 98.812C386.194 110.869 386.499 120.925 380.404 131.632C375.486 140.339 367.651 145.692 358.988 145.692C347.105 145.692 340.14 136.639 340.14 123.275C340.14 96.896 363.777 92.108 386.194 92.108V98.812ZM417.404 174.248C415.359 176.076 412.399 176.207 410.092 174.988C399.819 166.456 397.947 162.495 392.332 154.355C375.355 171.68 363.298 176.86 341.315 176.86C315.241 176.86 295 160.797 295 128.63C295 103.513 308.581 86.406 327.995 78.048C344.798 70.648 368.26 69.342 386.195 67.296V63.292C386.195 55.935 386.76 47.229 382.407 40.874C378.664 35.172 371.437 32.821 365.039 32.821C353.242 32.821 342.752 38.871 340.184 51.408C339.661 54.194 337.615 56.936 334.786 57.067L304.794 53.846C302.27 53.28 299.44 51.234 300.18 47.36C307.058 10.97 339.966 0 369.393 0C384.454 0 404.129 4.005 416.013 15.41C431.073 29.47 429.637 48.23 429.637 68.646V116.876C429.637 131.372 435.645 137.726 441.303 145.562C443.263 148.348 443.697 151.7 441.173 153.789C434.861 159.056 423.63 168.85 417.449 174.335L417.406 174.248H417.404Z" fill="white"/>
<path fill-rule="evenodd" clip-rule="evenodd" d="M476.789 34.468V11.746C476.789 8.307 479.401 6 482.535 6H584.263C587.528 6 590.14 8.35 590.14 11.746V31.203C590.096 34.468 587.354 38.734 582.479 45.481L529.765 120.743C549.353 120.265 570.029 123.181 587.789 133.193C591.794 135.456 592.882 138.765 593.187 142.029V166.275C593.187 169.583 589.53 173.457 585.7 171.455C554.402 155.045 512.832 153.26 478.226 171.629C474.7 173.545 471 169.714 471 166.406V143.379C471 139.679 471.043 133.367 474.743 127.752L535.815 40.171H482.665C479.401 40.171 476.789 37.864 476.789 34.468Z" fill="white"/>
<path fill-rule="evenodd" clip-rule="evenodd" d="M690.647 0C736.57 0 761.426 39.437 761.426 89.583C761.426 138.031 733.959 176.468 690.646 176.468C645.55 176.468 621 137.03 621 87.885C621 38.436 645.855 0 690.647 0ZM690.908 32.429C668.098 32.429 666.662 63.509 666.662 82.879C666.662 102.294 666.358 143.733 690.647 143.733C714.632 143.733 715.763 110.303 715.763 89.931C715.763 76.524 715.197 60.505 711.149 47.795C707.667 36.738 700.745 32.429 690.908 32.429Z" fill="white"/>
<path fill-rule="evenodd" clip-rule="evenodd" d="M36.434 175.159H5.61499C2.52499 174.942 0.0429688 172.461 0.0429688 169.413L0 10.531C0.26 7.615 2.83001 5.351 5.96301 5.351H34.649C37.348 5.481 39.568 7.311 40.177 9.791V34.081H40.743C49.406 12.36 61.55 2 82.923 2C96.809 2 110.347 7.005 119.053 20.717C127.149 33.427 127.149 54.801 127.149 70.167V170.153C126.801 172.939 124.233 175.159 121.186 175.159H90.149C87.319 174.942 84.969 172.852 84.664 170.153V83.878C84.664 66.51 86.667 41.088 65.294 41.088C57.764 41.088 50.842 46.138 47.404 53.799C43.05 63.507 42.484 73.17 42.484 83.879V169.413C42.441 172.591 39.742 175.159 36.434 175.159Z" fill="white"/>
<path fill-rule="evenodd" clip-rule="evenodd" d="M191.434 175.159H160.615C157.525 174.942 155.043 172.461 155.043 169.413L155 10.531C155.26 7.615 157.83 5.351 160.963 5.351H189.649C192.348 5.481 194.568 7.311 195.177 9.791V34.081H195.743C204.406 12.36 216.55 2 237.923 2C251.809 2 265.347 7.005 274.053 20.717C282.149 33.427 281.737 34.134 281.737 49.5L247.237 62.5C243.237 45.5 241.667 41.088 220.294 41.088C212.764 41.088 205.842 46.138 202.404 53.799C198.05 63.507 197.484 73.17 197.484 83.879V169.413C197.441 172.591 194.742 175.159 191.434 175.159Z" fill="white"/>
<path fill-rule="evenodd" clip-rule="evenodd" d="M825.434 175.159H794.615C791.525 174.942 789.043 172.461 789.043 169.413L789 10.531C789.26 7.615 791.83 5.351 794.963 5.351H823.649C826.348 5.481 828.568 7.311 829.177 9.791V34.081H829.743C838.406 12.36 850.55 2 871.923 2C885.809 2 899.347 7.005 908.053 20.717C916.149 33.427 916.149 54.801 916.149 70.167V170.153C915.801 172.939 913.233 175.159 910.186 175.159H879.149C876.319 174.942 873.969 172.852 873.664 170.153V83.878C873.664 66.51 875.667 41.088 854.294 41.088C846.764 41.088 839.842 46.138 836.404 53.799C832.05 63.507 831.484 73.17 831.484 83.879V169.413C831.441 172.591 828.742 175.159 825.434 175.159Z" fill="white"/>
<path d="M931 174.663V163.244H942.464V174.663H931ZM998.791 152.995L1008.7 154.276C1007.61 161.072 1004.84 166.4 1000.36 170.262C995.918 174.088 990.455 176 983.969 176C975.836 176 969.297 173.364 964.336 168.09C959.41 162.779 956.951 155.185 956.951 145.307C956.951 138.919 958.018 133.33 960.141 128.539C962.265 123.749 965.49 120.166 969.817 117.788C974.179 115.375 978.911 114.167 984.022 114.167C990.472 114.167 995.751 115.801 999.857 119.07C1003.95 122.301 1006.58 126.905 1007.74 132.885L997.954 134.388C997.02 130.415 995.363 127.426 992.975 125.421C990.622 123.415 987.776 122.412 984.418 122.412C979.343 122.412 975.227 124.232 972.055 127.872C968.883 131.474 967.297 137.192 967.297 145.028C967.297 152.975 968.83 158.751 971.888 162.353C974.946 165.954 978.937 167.756 983.855 167.756C987.811 167.756 991.107 166.549 993.759 164.135C996.403 161.721 998.086 158.008 998.791 152.995ZM1013.56 145.084C1013.56 134.129 1016.62 126.015 1022.73 120.741C1027.84 116.359 1034.07 114.167 1041.41 114.167C1049.58 114.167 1056.25 116.841 1061.44 122.189C1066.63 127.5 1069.22 134.853 1069.22 144.249C1069.22 151.862 1068.06 157.859 1065.74 162.241C1063.47 166.586 1060.13 169.966 1055.73 172.379C1051.37 174.793 1046.6 176 1041.41 176C1033.1 176 1026.36 173.345 1021.22 168.034C1016.12 162.724 1013.56 155.074 1013.56 145.084ZM1023.91 145.084C1023.91 152.66 1025.56 158.342 1028.88 162.13C1032.21 165.881 1036.38 167.756 1041.41 167.756C1046.41 167.756 1050.57 165.862 1053.88 162.074C1057.21 158.286 1058.86 152.511 1058.86 144.75C1058.86 137.434 1057.19 131.9 1053.83 128.15C1050.51 124.362 1046.38 122.467 1041.41 122.467C1036.38 122.467 1032.21 124.344 1028.88 128.094C1025.56 131.845 1023.91 137.508 1023.91 145.084ZM1083.92 174.663V163.244H1095.39V174.663H1083.92ZM1151.89 174.663V165.974C1147.26 172.658 1140.98 176 1133.03 176C1129.53 176 1126.25 175.332 1123.19 173.995C1120.17 172.658 1117.91 170.987 1116.42 168.981C1114.97 166.939 1113.95 164.451 1113.35 161.518C1112.93 159.549 1112.73 156.429 1112.73 152.158V115.505H1122.8V148.315C1122.8 153.551 1123.01 157.08 1123.42 158.899C1124.05 161.536 1125.39 163.615 1127.45 165.138C1129.49 166.623 1132.03 167.366 1135.05 167.366C1138.07 167.366 1140.9 166.605 1143.55 165.082C1146.2 163.523 1148.07 161.424 1149.15 158.787C1150.26 156.113 1150.82 152.251 1150.82 147.201V115.505H1160.9V174.663H1151.89ZM1176.78 174.663V93H1186.85V139.57L1210.68 115.505H1223.71L1201 137.453L1226 174.663H1213.58L1193.95 144.415L1186.85 151.211V174.663H1176.78Z" fill="white"/>
</svg>
