<svg width="12" height="14" viewBox="0 0 12 14" fill="none" xmlns="http://www.w3.org/2000/svg">
<path d="M6 8C5.40666 8 4.82664 7.82405 4.33329 7.49441C3.83994 7.16477 3.45543 6.69623 3.22836 6.14805C3.0013 5.59987 2.94189 4.99667 3.05765 4.41473C3.1734 3.83279 3.45912 3.29824 3.87868 2.87868C4.29824 2.45912 4.83279 2.1734 5.41473 2.05765C5.99667 1.94189 6.59987 2.0013 7.14805 2.22836C7.69623 2.45543 8.16477 2.83994 8.49441 3.33329C8.82405 3.82664 9 4.40666 9 5C8.99905 5.79536 8.68267 6.55787 8.12027 7.12027C7.55787 7.68267 6.79536 7.99905 6 8V8ZM6 3.2C5.64399 3.2 5.29598 3.30557 4.99997 3.50336C4.70397 3.70114 4.47326 3.98226 4.33702 4.31117C4.20078 4.64008 4.16513 5.002 4.23459 5.35116C4.30404 5.70033 4.47547 6.02106 4.72721 6.27279C4.97894 6.52453 5.29967 6.69596 5.64884 6.76541C5.998 6.83487 6.35992 6.79922 6.68883 6.66298C7.01774 6.52675 7.29886 6.29604 7.49665 6.00003C7.69443 5.70402 7.8 5.35601 7.8 5C7.79952 4.52276 7.60973 4.0652 7.27227 3.72774C6.9348 3.39027 6.47724 3.20048 6 3.2V3.2Z" fill="white"/>
<path d="M6.00001 14L1.78201 9.0255C1.7234 8.95081 1.66539 8.87564 1.60801 8.8C0.887496 7.85089 0.498259 6.69161 0.500006 5.5C0.500006 4.04131 1.07947 2.64236 2.11092 1.61091C3.14237 0.579463 4.54132 0 6.00001 0C7.4587 0 8.85764 0.579463 9.88909 1.61091C10.9205 2.64236 11.5 4.04131 11.5 5.5C11.5018 6.69107 11.1127 7.84982 10.3925 8.7985L10.392 8.8C10.392 8.8 10.242 8.997 10.2195 9.0235L6.00001 14ZM2.40601 8.1975C2.40701 8.1975 2.52301 8.3515 2.54951 8.3845L6.00001 12.454L9.45501 8.379C9.47701 8.3515 9.59401 8.1965 9.59451 8.196C10.1831 7.42056 10.5012 6.47352 10.5 5.5C10.5 4.30653 10.0259 3.16193 9.18199 2.31802C8.33807 1.47411 7.19348 1 6.00001 1C4.80653 1 3.66194 1.47411 2.81803 2.31802C1.97411 3.16193 1.50001 4.30653 1.50001 5.5C1.49896 6.47412 1.81739 7.42171 2.40651 8.1975H2.40601Z" fill="white"/>
</svg>
