<svg width="917" height="316" viewBox="0 0 917 316" fill="none" xmlns="http://www.w3.org/2000/svg">
<path fill-rule="evenodd" clip-rule="evenodd" d="M592.38 249.668C534.269 292.501 450.04 315.354 377.52 315.354C275.835 315.354 184.293 277.744 115.037 215.193C109.597 210.273 114.472 203.57 121.001 207.401C195.741 250.887 288.154 277.048 383.614 277.048C447.994 277.048 518.816 263.728 583.936 236.087C593.773 231.908 602 242.529 592.38 249.668" fill="#FF9900"/>
<path fill-rule="evenodd" clip-rule="evenodd" d="M616.54 222.027C609.14 212.537 567.438 217.543 548.72 219.763C543.018 220.46 542.148 215.497 547.284 211.928C580.497 188.553 634.996 195.3 641.351 203.135C647.706 211.014 639.697 265.643 608.486 291.717C603.698 295.722 599.127 293.589 601.26 288.278C608.269 270.78 623.983 231.56 616.54 222.027" fill="#FF9900"/>
<path fill-rule="evenodd" clip-rule="evenodd" d="M386.194 98.812C386.194 110.869 386.499 120.925 380.404 131.632C375.486 140.339 367.651 145.692 358.988 145.692C347.105 145.692 340.14 136.639 340.14 123.275C340.14 96.896 363.777 92.108 386.194 92.108V98.812ZM417.404 174.248C415.359 176.076 412.399 176.207 410.092 174.988C399.819 166.456 397.947 162.495 392.332 154.355C375.355 171.68 363.298 176.86 341.315 176.86C315.241 176.86 295 160.797 295 128.63C295 103.513 308.581 86.406 327.995 78.048C344.798 70.648 368.26 69.342 386.195 67.296V63.292C386.195 55.935 386.76 47.229 382.407 40.874C378.664 35.172 371.437 32.821 365.039 32.821C353.242 32.821 342.752 38.871 340.184 51.408C339.661 54.194 337.615 56.936 334.786 57.067L304.794 53.846C302.27 53.28 299.44 51.234 300.18 47.36C307.058 10.97 339.966 0 369.393 0C384.454 0 404.129 4.005 416.013 15.41C431.073 29.47 429.637 48.23 429.637 68.646V116.876C429.637 131.372 435.645 137.726 441.303 145.562C443.263 148.348 443.697 151.7 441.173 153.789C434.861 159.056 423.63 168.85 417.449 174.335L417.406 174.248H417.404Z" fill="black"/>
<path fill-rule="evenodd" clip-rule="evenodd" d="M476.789 34.468V11.746C476.789 8.307 479.401 6 482.535 6H584.263C587.528 6 590.14 8.35 590.14 11.746V31.203C590.096 34.468 587.354 38.734 582.479 45.481L529.765 120.743C549.353 120.265 570.029 123.181 587.789 133.193C591.794 135.456 592.882 138.765 593.187 142.029V166.275C593.187 169.583 589.53 173.457 585.7 171.455C554.402 155.045 512.832 153.26 478.226 171.629C474.7 173.545 471 169.714 471 166.406V143.379C471 139.679 471.043 133.367 474.743 127.752L535.815 40.171H482.665C479.401 40.171 476.789 37.864 476.789 34.468Z" fill="black"/>
<path fill-rule="evenodd" clip-rule="evenodd" d="M690.647 0C736.57 0 761.426 39.437 761.426 89.583C761.426 138.031 733.959 176.468 690.646 176.468C645.55 176.468 621 137.03 621 87.885C621 38.436 645.855 0 690.647 0ZM690.908 32.429C668.098 32.429 666.662 63.509 666.662 82.879C666.662 102.294 666.358 143.733 690.647 143.733C714.632 143.733 715.763 110.303 715.763 89.931C715.763 76.524 715.197 60.505 711.149 47.795C707.667 36.738 700.745 32.429 690.908 32.429Z" fill="black"/>
<path fill-rule="evenodd" clip-rule="evenodd" d="M36.434 175.159H5.61499C2.52499 174.942 0.0429688 172.461 0.0429688 169.413L0 10.531C0.26 7.615 2.83001 5.351 5.96301 5.351H34.649C37.348 5.481 39.568 7.311 40.177 9.791V34.081H40.743C49.406 12.36 61.55 2 82.923 2C96.809 2 110.347 7.005 119.053 20.717C127.149 33.427 127.149 54.801 127.149 70.167V170.153C126.801 172.939 124.233 175.159 121.186 175.159H90.149C87.319 174.942 84.969 172.852 84.664 170.153V83.878C84.664 66.51 86.667 41.088 65.294 41.088C57.764 41.088 50.842 46.138 47.404 53.799C43.05 63.507 42.484 73.17 42.484 83.879V169.413C42.441 172.591 39.742 175.159 36.434 175.159Z" fill="black"/>
<path fill-rule="evenodd" clip-rule="evenodd" d="M191.434 175.159H160.615C157.525 174.942 155.043 172.461 155.043 169.413L155 10.531C155.26 7.615 157.83 5.351 160.963 5.351H189.649C192.348 5.481 194.568 7.311 195.177 9.791V34.081H195.743C204.406 12.36 216.55 2 237.923 2C251.809 2 265.347 7.005 274.053 20.717C282.149 33.427 281.737 34.134 281.737 49.5L247.237 62.5C243.237 45.5 241.667 41.088 220.294 41.088C212.764 41.088 205.842 46.138 202.404 53.799C198.05 63.507 197.484 73.17 197.484 83.879V169.413C197.441 172.591 194.742 175.159 191.434 175.159Z" fill="black"/>
<path fill-rule="evenodd" clip-rule="evenodd" d="M825.434 175.159H794.615C791.525 174.942 789.043 172.461 789.043 169.413L789 10.531C789.26 7.615 791.83 5.351 794.963 5.351H823.649C826.348 5.481 828.568 7.311 829.177 9.791V34.081H829.743C838.406 12.36 850.55 2 871.923 2C885.809 2 899.347 7.005 908.053 20.717C916.149 33.427 916.149 54.801 916.149 70.167V170.153C915.801 172.939 913.233 175.159 910.186 175.159H879.149C876.319 174.942 873.969 172.852 873.664 170.153V83.878C873.664 66.51 875.667 41.088 854.294 41.088C846.764 41.088 839.842 46.138 836.404 53.799C832.05 63.507 831.484 73.17 831.484 83.879V169.413C831.441 172.591 828.742 175.159 825.434 175.159Z" fill="black"/>
</svg>
