<svg width="20" height="20" viewBox="0 0 20 20" fill="none" xmlns="http://www.w3.org/2000/svg">
<path d="M17.9353 19.607L11.1881 12.8587C9.74045 13.8879 7.95895 14.3357 6.1967 14.1133C4.43444 13.8909 2.82005 13.0145 1.67348 11.6579C0.52691 10.3013 -0.0681567 8.56345 0.00621754 6.78878C0.0805918 5.0141 0.818978 3.33213 2.07504 2.07622C3.33076 0.819762 5.01272 0.0809644 6.78753 0.00627016C8.56233 -0.0684241 10.3004 0.526438 11.6573 1.67294C13.0141 2.81945 13.8907 4.4339 14.1132 6.19629C14.3357 7.95867 13.888 9.74033 12.8587 11.1881L19.6058 17.9364L17.9364 19.6058L17.9353 19.607ZM7.08316 2.36193C5.99707 2.36167 4.9441 2.73579 4.10164 3.42124C3.25918 4.10669 2.67874 5.06158 2.45811 6.12502C2.23748 7.18846 2.39015 8.29544 2.8904 9.25946C3.39065 10.2235 4.20789 10.9856 5.20444 11.4174C6.20098 11.8493 7.31592 11.9244 8.36139 11.6302C9.40686 11.3359 10.319 10.6903 10.944 9.80215C11.5691 8.91396 11.8689 7.83746 11.7929 6.75404C11.7169 5.67061 11.2699 4.64649 10.527 3.85421L11.2412 4.56257L10.4361 3.75976L10.4219 3.74559C9.98458 3.30557 9.46429 2.9567 8.89118 2.71919C8.31807 2.48168 7.70353 2.36025 7.08316 2.36193Z" fill="#131921"/>
</svg>
