<svg width="8" height="17" viewBox="0 0 8 17" fill="none" xmlns="http://www.w3.org/2000/svg">
<path d="M3.85634 1.28652C3.92008 0.986881 4.14136 0.733585 4.47148 0.582351C4.80161 0.431118 5.21355 0.394334 5.61668 0.480094C6.01981 0.565853 6.38111 0.767129 6.62109 1.03964C6.86108 1.31216 6.96009 1.63359 6.89634 1.93323L4.97361 10.9715C4.90987 11.2711 4.68859 11.5244 4.35847 11.6756C4.02834 11.8269 3.6164 11.8636 3.21327 11.7779C2.81014 11.6921 2.44884 11.4908 2.20886 11.2183C1.96887 10.9458 1.86986 10.6244 1.93361 10.3247L3.85634 1.28652Z" fill="#D92322"/>
<path d="M0.992631 14.1574C1.0956 13.7731 1.34699 13.4455 1.69152 13.2466C2.03605 13.0477 2.44548 12.9938 2.82975 13.0967C3.21402 13.1997 3.54165 13.4511 3.74056 13.7956C3.93947 14.1401 3.99337 14.5496 3.89041 14.9338C3.78744 15.3181 3.53605 15.6457 3.19152 15.8447C2.84699 16.0436 2.43756 16.0975 2.05329 15.9945C1.66902 15.8915 1.34139 15.6401 1.14248 15.2956C0.943569 14.9511 0.889666 14.5417 0.992631 14.1574Z" fill="#D92322"/>
</svg>
